<svg width="16" height="16" viewBox="0 0 16 16" fill="none" xmlns="http://www.w3.org/2000/svg">
<path d="M7 15C7.55078 15 8 14.5508 8 14C8 13.4492 7.55078 13 7 13L4.41406 13L7.70703 9.70703C8.09766 9.31641 8.09766 8.68359 7.70703 8.29297C7.31641 7.90234 6.68359 7.90234 6.29297 8.29297L3 11.5859L3 9C3 8.44922 2.55078 8 2 8C1.44922 8 1 8.44922 1 9L1 15L7 15Z" fill="#2E3436"/>
<path d="M9 1C8.44922 1 8 1.44922 8 2C8 2.55078 8.44922 3 9 3H11.5859L8.29297 6.29297C7.90234 6.68359 7.90234 7.31641 8.29297 7.70703C8.68359 8.09766 9.31641 8.09766 9.70703 7.70703L13 4.41406V7C13 7.55078 13.4492 8 14 8C14.5508 8 15 7.55078 15 7V1H9Z" fill="#2E3436"/>
</svg>
