<svg width="16" height="16" viewBox="0 0 16 16" fill="none" xmlns="http://www.w3.org/2000/svg">
<g clip-path="url(#clip0_35_1633)">
<path d="M4 0C1.80078 0 0 1.80078 0 4V12C0 14.1992 1.80078 16 4 16H12C14.1992 16 16 14.1992 16 12V4C16 1.80078 14.1992 0 12 0H4ZM4 2H12C13.125 2 14 2.875 14 4V12C14 13.125 13.125 14 12 14H4C2.875 14 2 13.125 2 12V4C2 2.875 2.875 2 4 2Z" fill="white"/>
<path d="M4 10C4.55078 10 5 10.4492 5 11V12C5 12.5508 4.55078 13 4 13C3.44922 13 3 12.5508 3 12V11C3 10.4492 3.44922 10 4 10Z" fill="white"/>
<path d="M3.57031 11H12.4297C12.7461 11 13 11.2539 13 11.5703C13 11.8867 12.7461 12.1406 12.4297 12.1406H3.57031C3.25391 12.1406 3 11.8867 3 11.5703C3 11.2539 3.25391 11 3.57031 11Z" fill="white"/>
<path d="M13 5C13 4.44772 12.5523 4 12 4H4C3.44772 4 3 4.44772 3 5V8C3 8.55228 3.44772 9 4 9H5C5.55228 9 6 8.55228 6 8C6 7.44772 6.44772 7 7 7H9C9.55228 7 10 7.44772 10 8C10 8.55228 10.4477 9 11 9H12C12.5523 9 13 8.55228 13 8V5ZM5 6.5C5 6.22386 5.22386 6 5.5 6C5.77614 6 6 6.22386 6 6.5C6 6.77614 5.77614 7 5.5 7C5.22386 7 5 6.77614 5 6.5ZM11 6.5C11 6.22386 11.2239 6 11.5 6C11.7761 6 12 6.22386 12 6.5C12 6.77614 11.7761 7 11.5 7C11.2239 7 11 6.77614 11 6.5ZM4 5.5C4 5.22386 4.22386 5 4.5 5C4.77614 5 5 5.22386 5 5.5C5 5.77614 4.77614 6 4.5 6C4.22386 6 4 5.77614 4 5.5ZM10 5.5C10 5.22386 10.2239 5 10.5 5C10.7761 5 11 5.22386 11 5.5C11 5.77614 10.7761 6 10.5 6C10.2239 6 10 5.77614 10 5.5Z" fill="white"/>
</g>
<defs>
<clipPath id="clip0_35_1633">
<rect width="16" height="16" fill="white"/>
</clipPath>
</defs>
</svg>
