<svg width="128" height="128" viewBox="0 0 128 128" fill="none" xmlns="http://www.w3.org/2000/svg">
<rect x="12" y="12" width="104" height="104" rx="10" fill="url(#paint0_linear_40_654)"/>
<rect x="12" y="12" width="104" height="95" rx="8" fill="#77767B"/>
<rect x="16" y="58" width="96" height="45" fill="#F6F5F4"/>
<rect x="16" y="56" width="96" height="2" fill="url(#paint1_linear_40_654)"/>
<rect x="16" y="15" width="96" height="41" fill="url(#paint2_linear_40_654)"/>
<rect x="102" y="79" width="11" height="78" rx="2" transform="rotate(90 102 79)" fill="#241F31"/>
<path d="M49 80H26C24.8945 80 24 80.8945 24 82V88C24 89.1055 24.8945 90 26 90H49C50.1055 90 51 89.1055 51 88V82C51 80.8945 50.1055 80 49 80Z" fill="url(#paint3_linear_40_654)"/>
<path d="M49 78H26C24.8945 78 24 78.6406 24 79.4297V86.5703C24 87.3594 24.8945 88 26 88H49C50.1055 88 51 87.3594 51 86.5703V79.4297C51 78.6406 50.1055 78 49 78Z" fill="#F66151"/>
<path d="M43 75C43 76.6562 44.3438 78 46 78V88H40.75V75H43Z" fill="url(#paint4_linear_40_654)"/>
<path d="M32 75C32 76.6562 30.6562 78 29 78V88H34.25V75H32Z" fill="url(#paint5_linear_40_654)"/>
<path d="M43 85C43 86.6562 44.3438 88 46 88V89.5H29V88C30.6562 88 32 86.6562 32 85H43Z" fill="#C01C28"/>
<path d="M43 73H32V85H43V73Z" fill="url(#paint6_linear_40_654)"/>
<path d="M39 73H36V85H39V73Z" fill="#F66151"/>
<rect x="89" y="84" width="4" height="3" rx="1" transform="rotate(90 89 84)" fill="url(#paint7_linear_40_654)"/>
<rect x="77" y="84" width="4" height="3" rx="1" transform="rotate(90 77 84)" fill="url(#paint8_linear_40_654)"/>
<rect x="65" y="84" width="4" height="3" rx="1" transform="rotate(90 65 84)" fill="url(#paint9_linear_40_654)"/>
<rect x="86" y="81" width="4" height="3" rx="1" transform="rotate(90 86 81)" fill="url(#paint10_linear_40_654)"/>
<rect x="74" y="81" width="4" height="3" rx="1" transform="rotate(90 74 81)" fill="url(#paint11_linear_40_654)"/>
<rect x="62" y="81" width="4" height="3" rx="1" transform="rotate(90 62 81)" fill="url(#paint12_linear_40_654)"/>
<rect x="92" y="81" width="4" height="3" rx="1" transform="rotate(90 92 81)" fill="url(#paint13_linear_40_654)"/>
<rect x="80" y="81" width="4" height="3" rx="1" transform="rotate(90 80 81)" fill="url(#paint14_linear_40_654)"/>
<rect x="68" y="81" width="4" height="3" rx="1" transform="rotate(90 68 81)" fill="url(#paint15_linear_40_654)"/>
<rect x="56" y="81" width="4" height="3" rx="1" transform="rotate(90 56 81)" fill="url(#paint16_linear_40_654)"/>
<rect x="83" y="84" width="4" height="3" rx="1" transform="rotate(90 83 84)" fill="url(#paint17_linear_40_654)"/>
<rect x="71" y="84" width="4" height="3" rx="1" transform="rotate(90 71 84)" fill="url(#paint18_linear_40_654)"/>
<rect x="59" y="84" width="4" height="3" rx="1" transform="rotate(90 59 84)" fill="url(#paint19_linear_40_654)"/>
<rect x="94" y="79" width="10" height="11" rx="2" fill="url(#paint20_linear_40_654)"/>
<rect x="94" y="79" width="10" height="9" rx="2" fill="url(#paint21_linear_40_654)"/>
<path d="M94 82L94 85L104 85L104 82L94 82Z" fill="#F66151"/>
<path opacity="0.2" d="M23 51C23 41.0558 31.0278 33 40.9375 33L87.0625 33C96.9722 33 105 41.0558 105 51C105 60.9442 96.9722 69 87.0625 69C80.8129 69 75.0848 65.7457 71.8338 60.4912L71.8337 60.4911C71.3839 59.7641 71.159 59.4006 70.9262 59.1998C70.6975 59.0025 70.5087 58.8973 70.2206 58.8066C69.9273 58.7143 69.5659 58.7143 68.8429 58.7143H59.1429C58.4181 58.7143 58.0557 58.7143 57.7621 58.8069C57.4733 58.8979 57.2847 59.0032 57.0557 59.2012C56.8227 59.4026 56.5975 59.7678 56.1471 60.4983C52.91 65.7486 47.1843 69 40.9375 69C31.0278 69 23 60.9442 23 51Z" fill="#241F31"/>
<path d="M23 47C23 37.0558 31.0278 29 40.9375 29L87.0625 29C96.9722 29 105 37.0558 105 47C105 56.9442 96.9722 65 87.0625 65C80.8129 65 75.0848 61.7457 71.8338 56.4912L71.8337 56.4911C71.3839 55.7641 71.159 55.4006 70.9262 55.1998C70.6975 55.0025 70.5087 54.8973 70.2206 54.8066C69.9273 54.7143 69.5659 54.7143 68.8429 54.7143H59.1429C58.4181 54.7143 58.0557 54.7143 57.7621 54.8069C57.4733 54.8979 57.2847 55.0032 57.0557 55.2012C56.8227 55.4026 56.5975 55.7678 56.1471 56.4983C52.91 61.7486 47.1843 65 40.9375 65C31.0278 65 23 56.9442 23 47Z" fill="#A51D2D"/>
<rect x="23" y="42" width="82" height="5" fill="#A51D2D"/>
<path d="M23 42C23 31.5034 31.0278 23 40.9375 23L87.0625 23C96.9722 23 105 31.5034 105 42C105 52.4967 96.9722 61 87.0625 61C80.7997 61 75.0605 57.5503 71.8131 51.9832C71.3774 51.2362 71.1595 50.8627 70.9245 50.6524C70.6952 50.4473 70.499 50.3346 70.2064 50.2399C69.9063 50.1429 69.5364 50.1429 68.7965 50.1429H59.1892C58.4475 50.1429 58.0767 50.1429 57.7762 50.2402C57.4829 50.3352 57.2868 50.448 57.0573 50.6539C56.8221 50.8647 56.6041 51.2399 56.168 51.9902C52.9346 57.5532 47.1977 61 40.9375 61C31.0278 61 23 52.4967 23 42Z" fill="url(#paint22_linear_40_654)"/>
<ellipse cx="92" cy="46.4167" rx="5" ry="4.58333" fill="#241F31"/>
<rect x="87" y="44.5833" width="10" height="1.83333" fill="#241F31"/>
<ellipse cx="92" cy="44.5" rx="5" ry="4.5" fill="url(#paint23_linear_40_654)"/>
<ellipse cx="80" cy="35.4167" rx="5" ry="4.58333" fill="#241F31"/>
<rect x="75" y="33.5833" width="10" height="1.83333" fill="#241F31"/>
<ellipse cx="80" cy="33.5" rx="5" ry="4.5" fill="url(#paint24_linear_40_654)"/>
<path d="M42.9583 34H39.0417C38.6458 34 38.3333 34.293 38.3333 34.6641V39H33.7083C33.3125 39 33 39.293 33 39.6641V43.3359C33 43.707 33.3125 44 33.7083 44H38.3333V48.3359C38.3333 48.707 38.6458 49 39.0417 49H42.9583C43.3542 49 43.6667 48.707 43.6667 48.3359V44H48.2917C48.6875 44 49 43.707 49 43.3359V39.6641C49 39.293 48.6875 39 48.2917 39H43.6667V34.6641C43.6667 34.293 43.3542 34 42.9583 34Z" fill="#241F31"/>
<path d="M42.9583 33H39.0417C38.6458 33 38.3333 33.2734 38.3333 33.6198V37.6667H33.7083C33.3125 37.6667 33 37.9401 33 38.2865V41.7135C33 42.0599 33.3125 42.3333 33.7083 42.3333H38.3333V46.3802C38.3333 46.7266 38.6458 47 39.0417 47H42.9583C43.3542 47 43.6667 46.7266 43.6667 46.3802V42.3333H48.2917C48.6875 42.3333 49 42.0599 49 41.7135V38.2865C49 37.9401 48.6875 37.6667 48.2917 37.6667H43.6667V33.6198C43.6667 33.2734 43.3542 33 42.9583 33Z" fill="url(#paint25_linear_40_654)"/>
<rect x="14" y="15" width="100" height="90" rx="6" stroke="#3D3846" stroke-width="4"/>
<defs>
<linearGradient id="paint0_linear_40_654" x1="11.9996" y1="116" x2="116" y2="116" gradientUnits="userSpaceOnUse">
<stop stop-color="#241F31"/>
<stop offset="0.0384615" stop-color="#3D3846"/>
<stop offset="0.0768555" stop-color="#241F31"/>
<stop offset="0.923077" stop-color="#241F31"/>
<stop offset="0.961535" stop-color="#3D3846"/>
<stop offset="1" stop-color="#241F31"/>
</linearGradient>
<linearGradient id="paint1_linear_40_654" x1="112" y1="57" x2="16" y2="57" gradientUnits="userSpaceOnUse">
<stop stop-color="#C01C28"/>
<stop offset="1" stop-color="#ED333B"/>
</linearGradient>
<linearGradient id="paint2_linear_40_654" x1="64" y1="15" x2="64" y2="56" gradientUnits="userSpaceOnUse">
<stop stop-color="#C01C28"/>
<stop offset="1" stop-color="#F66151"/>
</linearGradient>
<linearGradient id="paint3_linear_40_654" x1="51" y1="85" x2="24" y2="85" gradientUnits="userSpaceOnUse">
<stop stop-color="#C01C28"/>
<stop offset="0.037037" stop-color="#F66151"/>
<stop offset="0.0740741" stop-color="#C01C28"/>
<stop offset="0.925926" stop-color="#C01C28"/>
<stop offset="0.962963" stop-color="#F66151"/>
<stop offset="1" stop-color="#C01C28"/>
</linearGradient>
<linearGradient id="paint4_linear_40_654" x1="45.9985" y1="83" x2="42.9985" y2="83" gradientUnits="userSpaceOnUse">
<stop stop-color="#F66151"/>
<stop offset="1" stop-color="#ED333B"/>
</linearGradient>
<linearGradient id="paint5_linear_40_654" x1="32" y1="83" x2="29" y2="83" gradientUnits="userSpaceOnUse">
<stop stop-color="#ED333B"/>
<stop offset="1" stop-color="#F66151"/>
</linearGradient>
<linearGradient id="paint6_linear_40_654" x1="37.5" y1="73" x2="37.5" y2="85" gradientUnits="userSpaceOnUse">
<stop offset="0.149038" stop-color="#F66151"/>
<stop offset="1" stop-color="#ED333B"/>
</linearGradient>
<linearGradient id="paint7_linear_40_654" x1="89" y1="85.5211" x2="93" y2="85.5211" gradientUnits="userSpaceOnUse">
<stop stop-color="white"/>
<stop offset="1" stop-color="#9A9996"/>
</linearGradient>
<linearGradient id="paint8_linear_40_654" x1="77" y1="85.5211" x2="81" y2="85.5211" gradientUnits="userSpaceOnUse">
<stop stop-color="white"/>
<stop offset="1" stop-color="#9A9996"/>
</linearGradient>
<linearGradient id="paint9_linear_40_654" x1="65" y1="85.5211" x2="69" y2="85.5211" gradientUnits="userSpaceOnUse">
<stop stop-color="white"/>
<stop offset="1" stop-color="#9A9996"/>
</linearGradient>
<linearGradient id="paint10_linear_40_654" x1="86" y1="82.5211" x2="90" y2="82.5211" gradientUnits="userSpaceOnUse">
<stop stop-color="white"/>
<stop offset="1" stop-color="#9A9996"/>
</linearGradient>
<linearGradient id="paint11_linear_40_654" x1="74" y1="82.5211" x2="78" y2="82.5211" gradientUnits="userSpaceOnUse">
<stop stop-color="white"/>
<stop offset="1" stop-color="#9A9996"/>
</linearGradient>
<linearGradient id="paint12_linear_40_654" x1="62" y1="82.5211" x2="66" y2="82.5211" gradientUnits="userSpaceOnUse">
<stop stop-color="white"/>
<stop offset="1" stop-color="#9A9996"/>
</linearGradient>
<linearGradient id="paint13_linear_40_654" x1="92" y1="82.5211" x2="96" y2="82.5211" gradientUnits="userSpaceOnUse">
<stop stop-color="white"/>
<stop offset="1" stop-color="#9A9996"/>
</linearGradient>
<linearGradient id="paint14_linear_40_654" x1="80" y1="82.5211" x2="84" y2="82.5211" gradientUnits="userSpaceOnUse">
<stop stop-color="white"/>
<stop offset="1" stop-color="#9A9996"/>
</linearGradient>
<linearGradient id="paint15_linear_40_654" x1="68" y1="82.5211" x2="72" y2="82.5211" gradientUnits="userSpaceOnUse">
<stop stop-color="white"/>
<stop offset="1" stop-color="#9A9996"/>
</linearGradient>
<linearGradient id="paint16_linear_40_654" x1="56" y1="82.5211" x2="60" y2="82.5211" gradientUnits="userSpaceOnUse">
<stop stop-color="white"/>
<stop offset="1" stop-color="#9A9996"/>
</linearGradient>
<linearGradient id="paint17_linear_40_654" x1="83" y1="85.5211" x2="87" y2="85.5211" gradientUnits="userSpaceOnUse">
<stop stop-color="white"/>
<stop offset="1" stop-color="#9A9996"/>
</linearGradient>
<linearGradient id="paint18_linear_40_654" x1="71" y1="85.5211" x2="75" y2="85.5211" gradientUnits="userSpaceOnUse">
<stop stop-color="white"/>
<stop offset="1" stop-color="#9A9996"/>
</linearGradient>
<linearGradient id="paint19_linear_40_654" x1="59" y1="85.5211" x2="63" y2="85.5211" gradientUnits="userSpaceOnUse">
<stop stop-color="white"/>
<stop offset="1" stop-color="#9A9996"/>
</linearGradient>
<linearGradient id="paint20_linear_40_654" x1="104" y1="84.5" x2="94" y2="84.5" gradientUnits="userSpaceOnUse">
<stop stop-color="#C01C28"/>
<stop offset="0.0817308" stop-color="#F66151"/>
<stop offset="0.16" stop-color="#C01C28"/>
<stop offset="0.84" stop-color="#C01C28"/>
<stop offset="0.92" stop-color="#F66151"/>
<stop offset="1" stop-color="#C01C28"/>
</linearGradient>
<linearGradient id="paint21_linear_40_654" x1="99" y1="79" x2="99" y2="88" gradientUnits="userSpaceOnUse">
<stop offset="0.149038" stop-color="#F66151"/>
<stop offset="1" stop-color="#ED333B"/>
</linearGradient>
<linearGradient id="paint22_linear_40_654" x1="64" y1="23" x2="64" y2="61" gradientUnits="userSpaceOnUse">
<stop stop-color="#F66151"/>
<stop offset="1" stop-color="#ED333B"/>
</linearGradient>
<linearGradient id="paint23_linear_40_654" x1="92" y1="40" x2="92" y2="49" gradientUnits="userSpaceOnUse">
<stop stop-color="white"/>
<stop offset="1" stop-color="#9A9996"/>
</linearGradient>
<linearGradient id="paint24_linear_40_654" x1="80" y1="29" x2="80" y2="38" gradientUnits="userSpaceOnUse">
<stop stop-color="white"/>
<stop offset="1" stop-color="#9A9996"/>
</linearGradient>
<linearGradient id="paint25_linear_40_654" x1="41" y1="33" x2="41" y2="47" gradientUnits="userSpaceOnUse">
<stop stop-color="white"/>
<stop offset="1" stop-color="#9A9996"/>
</linearGradient>
</defs>
</svg>
