<svg width="128" height="128" viewBox="0 0 128 128" fill="none" xmlns="http://www.w3.org/2000/svg">
<path d="M20 40H108C112.418 40 116 43.582 116 48V108C116 112.418 112.418 116 108 116H20C15.582 116 12 112.418 12 108V48C12 43.582 15.582 40 20 40Z" fill="url(#paint0_linear_35_1564)"/>
<path d="M20.3086 12H107.691C112.281 12 116 15.582 116 20V100C116 104.418 112.281 108 107.691 108H20.3086C15.7187 108 12 104.418 12 100V20C12 15.582 15.7187 12 20.3086 12Z" fill="#F6F5F4"/>
<path d="M16 22C16 19.7909 17.7909 18 20 18H108C110.209 18 112 19.7909 112 22V58H16V22Z" fill="url(#paint1_linear_35_1564)"/>
<path d="M16 20C16 17.7909 17.7909 16 20 16H108C110.209 16 112 17.7909 112 20V56H16V20Z" fill="url(#paint2_linear_35_1564)"/>
<g filter="url(#filter0_i_35_1564)">
<path d="M20.3086 14H107.691C111.248 14 114 16.757 114 20V100C114 103.243 111.248 106 107.691 106H20.3086C16.7515 106 14 103.243 14 100V20C14 16.757 16.7515 14 20.3086 14Z" stroke="#3D3846" stroke-width="4"/>
</g>
<rect x="102" y="79" width="11" height="78" rx="2" transform="rotate(90 102 79)" fill="#241F31"/>
<path d="M37 78C40.3125 78 43 80.6875 43 84C43 87.3125 40.3125 90 37 90C33.6875 90 31 87.3125 31 84C31 80.6875 33.6875 78 37 78Z" fill="url(#paint3_linear_35_1564)"/>
<path d="M31 80H43V84H31V80Z" fill="url(#paint4_linear_35_1564)"/>
<path d="M37 74C40.3125 74 43 76.6875 43 80C43 83.3125 40.3125 86 37 86C33.6875 86 31 83.3125 31 80C31 76.6875 33.6875 74 37 74Z" fill="white"/>
<path d="M49 80H26C24.8945 80 24 80.8945 24 82V88C24 89.1055 24.8945 90 26 90H49C50.1055 90 51 89.1055 51 88V82C51 80.8945 50.1055 80 49 80Z" fill="url(#paint5_linear_35_1564)"/>
<path d="M49 78H26C24.8945 78 24 78.6406 24 79.4297V86.5703C24 87.3594 24.8945 88 26 88H49C50.1055 88 51 87.3594 51 86.5703V79.4297C51 78.6406 50.1055 78 49 78Z" fill="#F66151"/>
<path d="M43 75C43 76.6562 44.3438 78 46 78V88H40.75V75H43Z" fill="url(#paint6_linear_35_1564)"/>
<path d="M32 75C32 76.6562 30.6562 78 29 78V88H34.25V75H32Z" fill="url(#paint7_linear_35_1564)"/>
<path d="M43 85C43 86.6562 44.3438 88 46 88V89.5H29V88C30.6562 88 32 86.6562 32 85H43Z" fill="#C01C28"/>
<path d="M43 73H32V85H43V73Z" fill="url(#paint8_linear_35_1564)"/>
<path d="M39 73H36V85H39V73Z" fill="#F66151"/>
<rect x="89" y="84" width="4" height="3" rx="1" transform="rotate(90 89 84)" fill="url(#paint9_linear_35_1564)"/>
<rect x="77" y="84" width="4" height="3" rx="1" transform="rotate(90 77 84)" fill="url(#paint10_linear_35_1564)"/>
<rect x="65" y="84" width="4" height="3" rx="1" transform="rotate(90 65 84)" fill="url(#paint11_linear_35_1564)"/>
<rect x="86" y="81" width="4" height="3" rx="1" transform="rotate(90 86 81)" fill="url(#paint12_linear_35_1564)"/>
<rect x="74" y="81" width="4" height="3" rx="1" transform="rotate(90 74 81)" fill="url(#paint13_linear_35_1564)"/>
<rect x="62" y="81" width="4" height="3" rx="1" transform="rotate(90 62 81)" fill="url(#paint14_linear_35_1564)"/>
<rect x="92" y="81" width="4" height="3" rx="1" transform="rotate(90 92 81)" fill="url(#paint15_linear_35_1564)"/>
<rect x="80" y="81" width="4" height="3" rx="1" transform="rotate(90 80 81)" fill="url(#paint16_linear_35_1564)"/>
<rect x="68" y="81" width="4" height="3" rx="1" transform="rotate(90 68 81)" fill="url(#paint17_linear_35_1564)"/>
<rect x="56" y="81" width="4" height="3" rx="1" transform="rotate(90 56 81)" fill="url(#paint18_linear_35_1564)"/>
<rect x="83" y="84" width="4" height="3" rx="1" transform="rotate(90 83 84)" fill="url(#paint19_linear_35_1564)"/>
<rect x="71" y="84" width="4" height="3" rx="1" transform="rotate(90 71 84)" fill="url(#paint20_linear_35_1564)"/>
<rect x="59" y="84" width="4" height="3" rx="1" transform="rotate(90 59 84)" fill="url(#paint21_linear_35_1564)"/>
<rect x="94" y="79" width="10" height="11" rx="2" fill="url(#paint22_linear_35_1564)"/>
<rect x="94" y="79" width="10" height="9" rx="2" fill="url(#paint23_linear_35_1564)"/>
<path d="M94 82L94 85L104 85L104 82L94 82Z" fill="#F66151"/>
<g filter="url(#filter1_d_35_1564)">
<path d="M40.9375 26.4167C31.0278 26.4167 23 34.8268 23 45.2083C23 55.5899 31.0278 64 40.9375 64C47.8643 64 54.1504 59.8264 57.1133 53.2619H70.8667C73.8496 59.8264 80.1357 64 87.0625 64C96.9722 64 105 55.5899 105 45.2083C105 34.8268 96.9722 26.4167 87.0625 26.4167C86.3618 26.4376 85.6812 26.4796 84.9805 26.5635C84.7603 26.5006 84.54 26.4167 84.2798 26.4167H43.7202C43.48 26.4167 43.2598 26.5006 43.0195 26.5635C42.3389 26.4796 41.6382 26.4167 40.9375 26.4167ZM79.375 31.7857C82.1978 31.7857 84.5 34.1976 84.5 37.1548C84.5 40.1329 82.1978 42.5238 79.375 42.5238C76.5522 42.5238 74.25 40.1329 74.25 37.1548C74.25 34.1976 76.5522 31.7857 79.375 31.7857ZM39.0557 37.1548H42.8193C43.1997 37.1548 43.5 37.4694 43.5 37.8678V42.5238H47.9443C48.3247 42.5238 48.625 42.8384 48.625 43.2369V47.1798C48.625 47.5783 48.3247 47.8929 47.9443 47.8929H43.5V52.5488C43.5 52.9473 43.1997 53.2619 42.8193 53.2619H39.0557C38.6753 53.2619 38.375 52.9473 38.375 52.5488V47.8929H33.9307C33.5503 47.8929 33.25 47.5783 33.25 47.1798V43.2369C33.25 42.8384 33.5503 42.5238 33.9307 42.5238H38.375V37.8678C38.375 37.4694 38.6753 37.1548 39.0557 37.1548ZM89.625 42.5238C92.4478 42.5238 94.75 44.9357 94.75 47.8929C94.75 50.871 92.4478 53.2619 89.625 53.2619C86.8022 53.2619 84.5 50.871 84.5 47.8929C84.5 44.9357 86.8022 42.5238 89.625 42.5238Z" fill="#A51D2D"/>
</g>
<g filter="url(#filter2_ii_35_1564)">
<path d="M40.9375 23C31.0278 23 23 31.5034 23 42C23 52.4967 31.0278 61 40.9375 61C47.8643 61 54.1504 56.7801 57.1133 50.1429H70.8667C73.8496 56.7801 80.1357 61 87.0625 61C96.9722 61 105 52.4967 105 42C105 31.5034 96.9722 23 87.0625 23C86.3618 23.0212 84.9073 23 84.2798 23C84.54 23 84.0669 23 84.2798 23L43.7202 23C43.0816 23 41.6382 23 40.9375 23Z" fill="url(#paint24_linear_35_1564)"/>
</g>
<g filter="url(#filter3_ii_35_1564)">
<path d="M42.8193 32.5591H39.0557C38.6753 32.5591 38.375 32.8737 38.375 33.2722V37.9282H33.9307C33.5503 37.9282 33.25 38.2428 33.25 38.6412V42.5841C33.25 42.9826 33.5503 43.2972 33.9307 43.2972H38.375V47.9532C38.375 48.3517 38.6753 48.6663 39.0557 48.6663H42.8193C43.1997 48.6663 43.5 48.3517 43.5 47.9532V43.2972H47.9443C48.3247 43.2972 48.625 42.9826 48.625 42.5841V38.6412C48.625 38.2428 48.3247 37.9282 47.9443 37.9282H43.5V33.2722C43.5 32.8737 43.1997 32.5591 42.8193 32.5591Z" fill="url(#paint25_linear_35_1564)"/>
</g>
<ellipse cx="92.0417" cy="46.4167" rx="5.04167" ry="4.58333" fill="#241F31"/>
<rect x="87" y="44.5833" width="10.0833" height="1.83333" fill="#241F31"/>
<g filter="url(#filter4_ii_35_1564)">
<circle cx="92.0417" cy="45.0417" r="5.04167" fill="url(#paint26_linear_35_1564)"/>
</g>
<ellipse cx="80.0417" cy="35.4167" rx="5.04167" ry="4.58333" fill="#241F31"/>
<rect x="75" y="33.5833" width="10.0833" height="1.83333" fill="#241F31"/>
<g filter="url(#filter5_ii_35_1564)">
<circle cx="80.0417" cy="34.0417" r="5.04167" fill="url(#paint27_linear_35_1564)"/>
</g>
<defs>
<filter id="filter0_i_35_1564" x="12" y="12" width="104" height="96" filterUnits="userSpaceOnUse" color-interpolation-filters="sRGB">
<feFlood flood-opacity="0" result="BackgroundImageFix"/>
<feBlend mode="normal" in="SourceGraphic" in2="BackgroundImageFix" result="shape"/>
<feColorMatrix in="SourceAlpha" type="matrix" values="0 0 0 0 0 0 0 0 0 0 0 0 0 0 0 0 0 0 127 0" result="hardAlpha"/>
<feOffset dy="1"/>
<feComposite in2="hardAlpha" operator="arithmetic" k2="-1" k3="1"/>
<feColorMatrix type="matrix" values="0 0 0 0 1 0 0 0 0 1 0 0 0 0 1 0 0 0 0.25 0"/>
<feBlend mode="normal" in2="shape" result="effect1_innerShadow_35_1564"/>
</filter>
<filter id="filter1_d_35_1564" x="17.9091" y="22.5985" width="92.1818" height="47.7651" filterUnits="userSpaceOnUse" color-interpolation-filters="sRGB">
<feFlood flood-opacity="0" result="BackgroundImageFix"/>
<feColorMatrix in="SourceAlpha" type="matrix" values="0 0 0 0 0 0 0 0 0 0 0 0 0 0 0 0 0 0 127 0" result="hardAlpha"/>
<feOffset dy="1.27273"/>
<feGaussianBlur stdDeviation="2.54545"/>
<feComposite in2="hardAlpha" operator="out"/>
<feColorMatrix type="matrix" values="0 0 0 0 0.141176 0 0 0 0 0.121569 0 0 0 0 0.192157 0 0 0 0.5 0"/>
<feBlend mode="normal" in2="BackgroundImageFix" result="effect1_dropShadow_35_1564"/>
<feBlend mode="normal" in="SourceGraphic" in2="effect1_dropShadow_35_1564" result="shape"/>
</filter>
<filter id="filter2_ii_35_1564" x="23" y="23" width="82" height="38" filterUnits="userSpaceOnUse" color-interpolation-filters="sRGB">
<feFlood flood-opacity="0" result="BackgroundImageFix"/>
<feBlend mode="normal" in="SourceGraphic" in2="BackgroundImageFix" result="shape"/>
<feColorMatrix in="SourceAlpha" type="matrix" values="0 0 0 0 0 0 0 0 0 0 0 0 0 0 0 0 0 0 127 0" result="hardAlpha"/>
<feOffset dy="-2"/>
<feComposite in2="hardAlpha" operator="arithmetic" k2="-1" k3="1"/>
<feColorMatrix type="matrix" values="0 0 0 0 0.647059 0 0 0 0 0.113725 0 0 0 0 0.176471 0 0 0 0.75 0"/>
<feBlend mode="normal" in2="shape" result="effect1_innerShadow_35_1564"/>
<feColorMatrix in="SourceAlpha" type="matrix" values="0 0 0 0 0 0 0 0 0 0 0 0 0 0 0 0 0 0 127 0" result="hardAlpha"/>
<feOffset dy="2"/>
<feComposite in2="hardAlpha" operator="arithmetic" k2="-1" k3="1"/>
<feColorMatrix type="matrix" values="0 0 0 0 1 0 0 0 0 1 0 0 0 0 1 0 0 0 0.25 0"/>
<feBlend mode="normal" in2="effect1_innerShadow_35_1564" result="effect2_innerShadow_35_1564"/>
</filter>
<filter id="filter3_ii_35_1564" x="33.25" y="32.5591" width="15.375" height="16.1071" filterUnits="userSpaceOnUse" color-interpolation-filters="sRGB">
<feFlood flood-opacity="0" result="BackgroundImageFix"/>
<feBlend mode="normal" in="SourceGraphic" in2="BackgroundImageFix" result="shape"/>
<feColorMatrix in="SourceAlpha" type="matrix" values="0 0 0 0 0 0 0 0 0 0 0 0 0 0 0 0 0 0 127 0" result="hardAlpha"/>
<feOffset dy="-1"/>
<feComposite in2="hardAlpha" operator="arithmetic" k2="-1" k3="1"/>
<feColorMatrix type="matrix" values="0 0 0 0 0.141176 0 0 0 0 0.121569 0 0 0 0 0.192157 0 0 0 1 0"/>
<feBlend mode="normal" in2="shape" result="effect1_innerShadow_35_1564"/>
<feColorMatrix in="SourceAlpha" type="matrix" values="0 0 0 0 0 0 0 0 0 0 0 0 0 0 0 0 0 0 127 0" result="hardAlpha"/>
<feOffset dy="1"/>
<feComposite in2="hardAlpha" operator="arithmetic" k2="-1" k3="1"/>
<feColorMatrix type="matrix" values="0 0 0 0 1 0 0 0 0 1 0 0 0 0 1 0 0 0 1 0"/>
<feBlend mode="normal" in2="effect1_innerShadow_35_1564" result="effect2_innerShadow_35_1564"/>
</filter>
<filter id="filter4_ii_35_1564" x="87" y="40" width="10.083" height="10.0833" filterUnits="userSpaceOnUse" color-interpolation-filters="sRGB">
<feFlood flood-opacity="0" result="BackgroundImageFix"/>
<feBlend mode="normal" in="SourceGraphic" in2="BackgroundImageFix" result="shape"/>
<feColorMatrix in="SourceAlpha" type="matrix" values="0 0 0 0 0 0 0 0 0 0 0 0 0 0 0 0 0 0 127 0" result="hardAlpha"/>
<feOffset dy="1"/>
<feComposite in2="hardAlpha" operator="arithmetic" k2="-1" k3="1"/>
<feColorMatrix type="matrix" values="0 0 0 0 1 0 0 0 0 1 0 0 0 0 1 0 0 0 1 0"/>
<feBlend mode="normal" in2="shape" result="effect1_innerShadow_35_1564"/>
<feColorMatrix in="SourceAlpha" type="matrix" values="0 0 0 0 0 0 0 0 0 0 0 0 0 0 0 0 0 0 127 0" result="hardAlpha"/>
<feOffset dy="-1"/>
<feComposite in2="hardAlpha" operator="arithmetic" k2="-1" k3="1"/>
<feColorMatrix type="matrix" values="0 0 0 0 0.239216 0 0 0 0 0.219608 0 0 0 0 0.27451 0 0 0 0.25 0"/>
<feBlend mode="normal" in2="effect1_innerShadow_35_1564" result="effect2_innerShadow_35_1564"/>
</filter>
<filter id="filter5_ii_35_1564" x="75" y="29" width="10.083" height="10.0833" filterUnits="userSpaceOnUse" color-interpolation-filters="sRGB">
<feFlood flood-opacity="0" result="BackgroundImageFix"/>
<feBlend mode="normal" in="SourceGraphic" in2="BackgroundImageFix" result="shape"/>
<feColorMatrix in="SourceAlpha" type="matrix" values="0 0 0 0 0 0 0 0 0 0 0 0 0 0 0 0 0 0 127 0" result="hardAlpha"/>
<feOffset dy="1"/>
<feComposite in2="hardAlpha" operator="arithmetic" k2="-1" k3="1"/>
<feColorMatrix type="matrix" values="0 0 0 0 1 0 0 0 0 1 0 0 0 0 1 0 0 0 1 0"/>
<feBlend mode="normal" in2="shape" result="effect1_innerShadow_35_1564"/>
<feColorMatrix in="SourceAlpha" type="matrix" values="0 0 0 0 0 0 0 0 0 0 0 0 0 0 0 0 0 0 127 0" result="hardAlpha"/>
<feOffset dy="-1"/>
<feComposite in2="hardAlpha" operator="arithmetic" k2="-1" k3="1"/>
<feColorMatrix type="matrix" values="0 0 0 0 0.239216 0 0 0 0 0.219608 0 0 0 0 0.27451 0 0 0 0.25 0"/>
<feBlend mode="normal" in2="effect1_innerShadow_35_1564" result="effect2_innerShadow_35_1564"/>
</filter>
<linearGradient id="paint0_linear_35_1564" x1="11.9996" y1="116" x2="116" y2="116" gradientUnits="userSpaceOnUse">
<stop stop-color="#241F31"/>
<stop offset="0.0384615" stop-color="#3D3846"/>
<stop offset="0.0768555" stop-color="#241F31"/>
<stop offset="0.923077" stop-color="#241F31"/>
<stop offset="0.961535" stop-color="#3D3846"/>
<stop offset="1" stop-color="#241F31"/>
</linearGradient>
<linearGradient id="paint1_linear_35_1564" x1="112" y1="38" x2="16" y2="38" gradientUnits="userSpaceOnUse">
<stop stop-color="#C01C28"/>
<stop offset="1" stop-color="#ED333B"/>
</linearGradient>
<linearGradient id="paint2_linear_35_1564" x1="64" y1="16" x2="64" y2="56" gradientUnits="userSpaceOnUse">
<stop stop-color="#C01C28"/>
<stop offset="1" stop-color="#F66151"/>
</linearGradient>
<linearGradient id="paint3_linear_35_1564" x1="31" y1="84" x2="43" y2="84" gradientUnits="userSpaceOnUse">
<stop stop-color="#DEA1FF"/>
<stop offset="0.5" stop-color="#F2CCFF"/>
<stop offset="1" stop-color="#E5B3FF"/>
</linearGradient>
<linearGradient id="paint4_linear_35_1564" x1="31" y1="81.9999" x2="43" y2="81.9999" gradientUnits="userSpaceOnUse">
<stop stop-color="#DEA1FF"/>
<stop offset="0.5" stop-color="#F2CCFF"/>
<stop offset="1" stop-color="#E5B3FF"/>
</linearGradient>
<linearGradient id="paint5_linear_35_1564" x1="51" y1="85" x2="24" y2="85" gradientUnits="userSpaceOnUse">
<stop stop-color="#C01C28"/>
<stop offset="0.037037" stop-color="#F66151"/>
<stop offset="0.0740741" stop-color="#C01C28"/>
<stop offset="0.925926" stop-color="#C01C28"/>
<stop offset="0.962963" stop-color="#F66151"/>
<stop offset="1" stop-color="#C01C28"/>
</linearGradient>
<linearGradient id="paint6_linear_35_1564" x1="45.9985" y1="83" x2="42.9985" y2="83" gradientUnits="userSpaceOnUse">
<stop stop-color="#F66151"/>
<stop offset="1" stop-color="#ED333B"/>
</linearGradient>
<linearGradient id="paint7_linear_35_1564" x1="32" y1="83" x2="29" y2="83" gradientUnits="userSpaceOnUse">
<stop stop-color="#ED333B"/>
<stop offset="1" stop-color="#F66151"/>
</linearGradient>
<linearGradient id="paint8_linear_35_1564" x1="37.5" y1="73" x2="37.5" y2="85" gradientUnits="userSpaceOnUse">
<stop offset="0.149038" stop-color="#F66151"/>
<stop offset="1" stop-color="#ED333B"/>
</linearGradient>
<linearGradient id="paint9_linear_35_1564" x1="89" y1="85.5211" x2="93" y2="85.5211" gradientUnits="userSpaceOnUse">
<stop stop-color="white"/>
<stop offset="1" stop-color="#9A9996"/>
</linearGradient>
<linearGradient id="paint10_linear_35_1564" x1="77" y1="85.5211" x2="81" y2="85.5211" gradientUnits="userSpaceOnUse">
<stop stop-color="white"/>
<stop offset="1" stop-color="#9A9996"/>
</linearGradient>
<linearGradient id="paint11_linear_35_1564" x1="65" y1="85.5211" x2="69" y2="85.5211" gradientUnits="userSpaceOnUse">
<stop stop-color="white"/>
<stop offset="1" stop-color="#9A9996"/>
</linearGradient>
<linearGradient id="paint12_linear_35_1564" x1="86" y1="82.5211" x2="90" y2="82.5211" gradientUnits="userSpaceOnUse">
<stop stop-color="white"/>
<stop offset="1" stop-color="#9A9996"/>
</linearGradient>
<linearGradient id="paint13_linear_35_1564" x1="74" y1="82.5211" x2="78" y2="82.5211" gradientUnits="userSpaceOnUse">
<stop stop-color="white"/>
<stop offset="1" stop-color="#9A9996"/>
</linearGradient>
<linearGradient id="paint14_linear_35_1564" x1="62" y1="82.5211" x2="66" y2="82.5211" gradientUnits="userSpaceOnUse">
<stop stop-color="white"/>
<stop offset="1" stop-color="#9A9996"/>
</linearGradient>
<linearGradient id="paint15_linear_35_1564" x1="92" y1="82.5211" x2="96" y2="82.5211" gradientUnits="userSpaceOnUse">
<stop stop-color="white"/>
<stop offset="1" stop-color="#9A9996"/>
</linearGradient>
<linearGradient id="paint16_linear_35_1564" x1="80" y1="82.5211" x2="84" y2="82.5211" gradientUnits="userSpaceOnUse">
<stop stop-color="white"/>
<stop offset="1" stop-color="#9A9996"/>
</linearGradient>
<linearGradient id="paint17_linear_35_1564" x1="68" y1="82.5211" x2="72" y2="82.5211" gradientUnits="userSpaceOnUse">
<stop stop-color="white"/>
<stop offset="1" stop-color="#9A9996"/>
</linearGradient>
<linearGradient id="paint18_linear_35_1564" x1="56" y1="82.5211" x2="60" y2="82.5211" gradientUnits="userSpaceOnUse">
<stop stop-color="white"/>
<stop offset="1" stop-color="#9A9996"/>
</linearGradient>
<linearGradient id="paint19_linear_35_1564" x1="83" y1="85.5211" x2="87" y2="85.5211" gradientUnits="userSpaceOnUse">
<stop stop-color="white"/>
<stop offset="1" stop-color="#9A9996"/>
</linearGradient>
<linearGradient id="paint20_linear_35_1564" x1="71" y1="85.5211" x2="75" y2="85.5211" gradientUnits="userSpaceOnUse">
<stop stop-color="white"/>
<stop offset="1" stop-color="#9A9996"/>
</linearGradient>
<linearGradient id="paint21_linear_35_1564" x1="59" y1="85.5211" x2="63" y2="85.5211" gradientUnits="userSpaceOnUse">
<stop stop-color="white"/>
<stop offset="1" stop-color="#9A9996"/>
</linearGradient>
<linearGradient id="paint22_linear_35_1564" x1="104" y1="84.5" x2="94" y2="84.5" gradientUnits="userSpaceOnUse">
<stop stop-color="#C01C28"/>
<stop offset="0.0817308" stop-color="#F66151"/>
<stop offset="0.16" stop-color="#C01C28"/>
<stop offset="0.84" stop-color="#C01C28"/>
<stop offset="0.92" stop-color="#F66151"/>
<stop offset="1" stop-color="#C01C28"/>
</linearGradient>
<linearGradient id="paint23_linear_35_1564" x1="99" y1="79" x2="99" y2="88" gradientUnits="userSpaceOnUse">
<stop offset="0.149038" stop-color="#F66151"/>
<stop offset="1" stop-color="#ED333B"/>
</linearGradient>
<linearGradient id="paint24_linear_35_1564" x1="64" y1="23" x2="64" y2="61" gradientUnits="userSpaceOnUse">
<stop stop-color="#F66151"/>
<stop offset="1" stop-color="#ED333B"/>
</linearGradient>
<linearGradient id="paint25_linear_35_1564" x1="40.9375" y1="32.5591" x2="40.9375" y2="48.6663" gradientUnits="userSpaceOnUse">
<stop stop-color="#DEDDDA"/>
<stop offset="1" stop-color="#C0BFBC"/>
</linearGradient>
<linearGradient id="paint26_linear_35_1564" x1="92.0417" y1="40" x2="92.0417" y2="50.0833" gradientUnits="userSpaceOnUse">
<stop stop-color="white"/>
<stop offset="1" stop-color="#9A9996"/>
</linearGradient>
<linearGradient id="paint27_linear_35_1564" x1="80.0417" y1="29" x2="80.0417" y2="39.0833" gradientUnits="userSpaceOnUse">
<stop stop-color="white"/>
<stop offset="1" stop-color="#9A9996"/>
</linearGradient>
</defs>
</svg>
